<?xml version="1.0" encoding="UTF-8"?>
<svg version="1.1" xmlns="http://www.w3.org/2000/svg" width="666" height="432">
<path d="M0 0 C219.78 0 439.56 0 666 0 C666 142.56 666 285.12 666 432 C446.22 432 226.44 432 0 432 C0 289.44 0 146.88 0 0 Z " fill="#FDFDFD" transform="translate(0,0)"/>
<path d="M0 0 C31.30434201 -0.09142859 62.60864842 -0.16213036 93.91309243 -0.20426132 C97.61645963 -0.2092636 101.31982656 -0.21444094 105.02319336 -0.21972656 C106.12901314 -0.22130043 106.12901314 -0.22130043 107.25717271 -0.22290608 C119.16353772 -0.24026845 131.06982476 -0.2717829 142.97614365 -0.30861118 C155.21086514 -0.3461371 167.44554604 -0.36826035 179.68032271 -0.37635398 C187.21800773 -0.38181773 194.7554723 -0.39901685 202.2930894 -0.43166587 C208.09196317 -0.45549023 213.89069853 -0.45779068 219.68961143 -0.45243073 C222.05455626 -0.45352384 224.41951008 -0.46138173 226.78440475 -0.4768219 C248.91108663 -0.61409986 269.02039975 1.91445869 287 16 C287.71027344 16.54527344 288.42054688 17.09054688 289.15234375 17.65234375 C294.54211883 22.04899329 298.27579375 27.16128279 302 33 C302.721875 34.093125 303.44375 35.18625 304.1875 36.3125 C308.42418757 44.03715018 310.66544533 53.22884931 311 62 C311.03996094 62.97324219 311.07992188 63.94648438 311.12109375 64.94921875 C311.56972119 86.82640371 305.74898272 109.36741226 291 126 C290.36771484 126.84304687 290.36771484 126.84304687 289.72265625 127.703125 C281.99309052 137.75860868 270.45012614 145.00694365 259 150 C258.09378906 150.43828125 257.18757813 150.8765625 256.25390625 151.328125 C247.19704161 155.49855366 237.81890821 157.5770764 228 159 C227.13552246 159.1350293 226.27104492 159.27005859 225.38037109 159.40917969 C208.43077591 161.73908535 198.14502183 155.50659397 184.59716797 145.84570312 C181.34761621 143.536377 178.035652 141.3747547 174.625 139.3125 C174.07175049 138.97653809 173.51850098 138.64057617 172.94848633 138.29443359 C151.54419994 125.2157593 151.54419994 125.2157593 128 119 C130.73692466 122.30669336 134.39995179 123.86780532 138.1875 125.6875 C138.84169922 126.00783203 139.49589844 126.32816406 140.16992188 126.65820312 C141.77727907 127.44428292 143.38828858 128.22288683 145 129 C145 129.66 145 130.32 145 131 C145.62648437 131.20496094 146.25296875 131.40992188 146.8984375 131.62109375 C148.12433594 132.02521484 148.12433594 132.02521484 149.375 132.4375 C150.18710938 132.70433594 150.99921875 132.97117188 151.8359375 133.24609375 C154 134 154 134 156 135 C156 135.66 156 136.32 156 137 C156.58015869 137.11158447 157.16031738 137.22316895 157.75805664 137.33813477 C160.23822191 138.07032774 161.78847925 139.0665143 163.87109375 140.58984375 C164.60368408 141.12174316 165.33627441 141.65364258 166.09106445 142.20166016 C166.86538818 142.7744873 167.63971191 143.34731445 168.4375 143.9375 C169.64249146 144.81994385 169.64249146 144.81994385 170.87182617 145.72021484 C173.2546227 147.47125786 175.62912734 149.23285496 178 151 C178.62745117 151.46712402 179.25490234 151.93424805 179.90136719 152.41552734 C187.563217 158.14774224 194.90458165 164.2111258 202.15087891 170.45532227 C203.49025358 171.57417935 204.85563563 172.66214127 206.23583984 173.73022461 C216.57565016 181.83532701 225.50515289 191.4061384 234.66992188 200.78637695 C249.2665354 216.40395504 249.2665354 216.40395504 267 228 C267.71542969 226.98164063 268.43085938 225.96328125 269.16796875 224.9140625 C270.17431589 223.48426007 271.18084114 222.05458298 272.1875 220.625 C272.72560303 219.85986084 273.26370605 219.09472168 273.81811523 218.30639648 C276.61255821 214.3434637 279.42781406 210.39968678 282.3046875 206.49609375 C288.3372218 198.29773339 293.96059089 190.01515317 299.17895508 181.2734375 C302.26088814 176.13063562 305.58696048 171.27876839 309.1875 166.48046875 C310.99600071 164.00547317 312.63161763 161.47763895 314.25 158.875 C317.180815 154.19493731 320.29894132 149.68403857 323.5 145.1875 C330.22158198 135.74300784 336.73292825 126.15997956 343.24853516 116.57275391 C345.73801936 112.9159119 348.24170844 109.26895866 350.75 105.625 C351.18981201 104.98594727 351.62962402 104.34689453 352.08276367 103.68847656 C352.95445371 102.42226955 353.82627818 101.15615508 354.69824219 99.89013672 C356.92508446 96.65678846 359.15020562 93.42225758 361.375 90.1875 C361.82319092 89.53620117 362.27138184 88.88490234 362.7331543 88.21386719 C365.24013434 84.56847961 367.73940012 80.91800046 370.23046875 77.26171875 C375.42650504 69.63882786 380.6463833 62.04447337 386.04663086 54.56469727 C390.64857195 48.15626618 395.05736899 41.61507805 399.47216797 35.0769043 C400.68466148 33.28683896 401.91446621 31.50837955 403.16113281 29.74194336 C405.06788218 27.00051929 405.06788218 27.00051929 406.64355469 23.90063477 C408.52718142 20.64464392 410.08151019 18.38747992 413 16 C418.73698556 14.66708521 424.15928937 14.95063663 430 15.3125 C431.55321168 15.36775195 433.10661264 15.41792909 434.66015625 15.46289062 C438.44862179 15.57407825 442.21059498 15.78876627 446 16 C444.68 23.26 443.36 30.52 442 38 C448.6 38.33 455.2 38.66 462 39 C461.44912716 45.51866188 460.53808217 51.64259371 459 58 C462.96 58 466.92 58 471 58 C469.2424534 62.3938665 467.26005742 65.69396779 464.5 69.4375 C463.59102824 70.69001884 462.68217734 71.94262539 461.7734375 73.1953125 C461.3103418 73.82985352 460.84724609 74.46439453 460.37011719 75.11816406 C458.26975155 78.00298558 456.19727297 80.9074679 454.125 83.8125 C453.71830078 84.38081543 453.31160156 84.94913086 452.89257812 85.53466797 C450.59678142 88.74611382 448.31773865 91.96850987 446.0546875 95.203125 C441.44203287 101.79030392 436.81804954 108.34276309 431.875 114.6875 C428.05738949 119.58889787 424.40243913 124.57370468 420.81103516 129.640625 C417.8264784 133.84976354 414.80470981 138.02899214 411.75 142.1875 C411.30092285 142.79891846 410.8518457 143.41033691 410.38916016 144.0402832 C407.77860318 147.59033132 405.16160322 151.13559476 402.54296875 154.6796875 C394.7040271 165.29086132 394.7040271 165.29086132 387 176 C381.37490974 183.924202 375.59115951 191.73043423 369.81445312 199.54443359 C366.87205307 203.52649223 363.93635163 207.51348054 361 211.5 C359.83594846 213.07943516 358.67188595 214.65886223 357.5078125 216.23828125 C355.14656803 219.44263898 352.78741454 222.64852217 350.4296875 225.85546875 C343.91235314 234.7169368 337.36773298 243.55596833 330.74609375 252.33984375 C328.98946341 254.67243851 327.25210748 257.01696645 325.53515625 259.37890625 C314.92844169 273.86568392 301.739608 285.12042939 285 292 C283.81921875 292.48597656 282.6384375 292.97195313 281.421875 293.47265625 C266.42784028 299.00578818 246.02623104 300.26469727 230.96875 294.390625 C229.9890625 293.93171875 229.009375 293.4728125 228 293 C227.3709375 292.72091797 226.741875 292.44183594 226.09375 292.15429688 C206.18575156 283.27487711 191.58660048 268.55777883 179 251 C176.93509534 248.25665687 174.84260976 245.53474182 172.75 242.8125 C171.63390882 241.35562636 170.51802549 239.89859347 169.40234375 238.44140625 C168.84144043 237.70937988 168.28053711 236.97735352 167.70263672 236.22314453 C165.45429133 233.28746442 163.20921533 230.34929209 160.96411133 227.41113281 C152.74652032 216.65841802 144.50448063 205.926086 136.1875 195.25 C126.77713574 183.16445285 117.47971681 170.99776874 108.30371094 158.73339844 C102.40779513 150.86050228 96.41198769 143.0667464 90.3359375 135.33203125 C89.70155762 134.52233887 89.06717773 133.71264648 88.41357422 132.87841797 C87.16046358 131.27997446 85.90438671 129.68385086 84.64501953 128.09033203 C84.07122559 127.3579834 83.49743164 126.62563477 82.90625 125.87109375 C82.39384766 125.22068115 81.88144531 124.57026855 81.35351562 123.90014648 C80.00292629 122.00410811 79.03510634 120.07920176 78 118 C77.4225 117.443125 76.845 116.88625 76.25 116.3125 C74.09402405 114.09663583 72.55123381 111.93254877 70.859375 109.35546875 C70.32280273 108.54102295 69.78623047 107.72657715 69.23339844 106.88745117 C68.82637695 106.26459229 68.41935547 105.6417334 68 105 C68.72500041 104.99945523 69.45000082 104.99891047 70.19697094 104.99834919 C87.88515328 104.98334404 105.57305721 104.94074692 123.261096 104.86790943 C131.81512455 104.83334157 140.36899333 104.80791472 148.9230957 104.80444336 C156.38390785 104.801392 163.84443485 104.78074502 171.30513698 104.73947543 C175.25103771 104.71824934 179.19653412 104.70549074 183.14249229 104.71384621 C186.86671397 104.72145302 190.59012092 104.70529932 194.31419373 104.67193985 C196.31195539 104.65993613 198.30981832 104.67220839 200.30757141 104.68556213 C210.85167229 104.55355543 221.82170555 102.28857517 229.6328125 94.65234375 C234.06506976 89.29564426 235.6402605 84.3441616 235.3203125 77.390625 C234.48597819 71.16364207 231.83730151 66.89087296 227 63 C219.38452228 58.194041 211.55730706 58.4331003 202.81665039 58.48583984 C201.29461459 58.48037125 199.77258431 58.4731253 198.25056458 58.46424866 C194.98812027 58.44897298 191.72599016 58.44608394 188.46351814 58.45301437 C183.29736799 58.46385066 178.13154288 58.44635977 172.96543884 58.42520142 C164.78946474 58.39499737 156.61358767 58.38325225 148.43756241 58.37962496 C133.80632248 58.37297122 119.17515046 58.34381375 104.54399294 58.2945286 C99.41609666 58.27810099 94.28834151 58.27260016 89.16042149 58.27611899 C85.96194543 58.27655829 82.76352196 58.26895818 79.56506157 58.25944328 C78.09054147 58.25677735 76.61601049 58.25748328 75.14149475 58.26195335 C59.28111792 58.30668179 45.72283019 56.11904241 33.73046875 44.84375 C30.84637221 41.77085256 28.44003369 38.42751469 26 35 C24.84047798 33.49447026 23.67358787 31.99459112 22.5 30.5 C20.38547855 27.79249319 18.29704527 25.07130526 16.25 22.3125 C14.29374343 19.68112228 12.28972421 17.09417997 10.25 14.52734375 C9.51088379 13.59571411 9.51088379 13.59571411 8.75683594 12.64526367 C7.76841847 11.40205485 6.77697897 10.16124146 5.78222656 8.9230957 C3.49916519 6.05004321 1.56442854 3.31385839 0 0 Z " fill="#422FC6" transform="translate(74,101)"/>
<path d="M0 0 C31.30434201 -0.09142859 62.60864842 -0.16213036 93.91309243 -0.20426132 C97.61645963 -0.2092636 101.31982656 -0.21444094 105.02319336 -0.21972656 C106.12901314 -0.22130043 106.12901314 -0.22130043 107.25717271 -0.22290608 C119.16353772 -0.24026845 131.06982476 -0.2717829 142.97614365 -0.30861118 C155.21086514 -0.3461371 167.44554604 -0.36826035 179.68032271 -0.37635398 C187.21800773 -0.38181773 194.7554723 -0.39901685 202.2930894 -0.43166587 C208.09196317 -0.45549023 213.89069853 -0.45779068 219.68961143 -0.45243073 C222.05455626 -0.45352384 224.41951008 -0.46138173 226.78440475 -0.4768219 C248.91108663 -0.61409986 269.02039975 1.91445869 287 16 C287.71027344 16.54527344 288.42054688 17.09054688 289.15234375 17.65234375 C294.54211883 22.04899329 298.27579375 27.16128279 302 33 C302.721875 34.093125 303.44375 35.18625 304.1875 36.3125 C308.42418757 44.03715018 310.66544533 53.22884931 311 62 C311.03996094 62.97324219 311.07992188 63.94648438 311.12109375 64.94921875 C311.5685972 86.77159274 305.78030161 109.43345341 291 126 C290.49726563 126.62003906 289.99453125 127.24007812 289.4765625 127.87890625 C284.59861914 133.85374163 279.71131527 139.1191914 272 141 C272 137.34769166 273.08776861 136.06678619 275 133 C282.71564899 117.00414234 286.10356867 99.18829916 281.046875 81.84765625 C274.83348034 64.94629541 264.06174725 54.74714076 248 47 C233.02272105 40.16872313 215.34397864 40.43788474 199.25 40.6875 C197.28256166 40.69903494 195.31511218 40.70880704 193.34765625 40.71679688 C191.48696704 40.73017932 189.62628803 40.7450905 187.765625 40.76171875 C186.46132538 40.77279915 186.46132538 40.77279915 185.13067627 40.78410339 C181.25185709 40.47054351 181.25185709 40.47054351 178 42 C176.63322253 42.27506397 175.25521151 42.49453821 173.875 42.69140625 C172.96097412 42.82756348 172.04694824 42.9637207 171.10522461 43.10400391 C170.08050049 43.25530762 169.05577637 43.40661133 168 43.5625 C154.15493748 45.67591753 140.44446203 48.40050131 126.72070312 51.18188477 C125.03125489 51.51971848 123.34180195 51.85752864 121.65234375 52.1953125 C120.91733139 52.34730606 120.18231903 52.49929962 119.42503357 52.65589905 C111.62441644 54.2084189 103.96973503 55.00378312 96 56 C133.95 56.33 171.9 56.66 211 57 C211 57.33 211 57.66 211 58 C191.74553082 58.04678769 172.49107322 58.08202197 153.23655891 58.10362434 C144.29570741 58.11392274 135.35489129 58.12795553 126.4140625 58.15087891 C118.61830651 58.17085685 110.82257615 58.18372688 103.02679527 58.18817699 C98.90166223 58.19077692 94.77660253 58.1968578 90.65149307 58.21146011 C86.76259891 58.22511371 82.87380775 58.22920704 78.98489189 58.22621536 C77.56358593 58.22676207 76.14227625 58.23069295 74.72099113 58.23841095 C59.02732487 58.31939599 45.58064509 55.9853591 33.73046875 44.84375 C30.84637221 41.77085256 28.44003369 38.42751469 26 35 C24.84047798 33.49447026 23.67358787 31.99459112 22.5 30.5 C20.38547855 27.79249319 18.29704527 25.07130526 16.25 22.3125 C14.29374343 19.68112228 12.28972421 17.09417997 10.25 14.52734375 C9.51088379 13.59571411 9.51088379 13.59571411 8.75683594 12.64526367 C7.76841847 11.40205485 6.77697897 10.16124146 5.78222656 8.9230957 C3.49916519 6.05004321 1.56442854 3.31385839 0 0 Z " fill="#1B8CE1" transform="translate(74,101)"/>
<path d="M0 0 C0.90320984 -0.00807175 1.80641968 -0.01614349 2.73699951 -0.02445984 C4.66725735 -0.03834264 6.59754018 -0.04904585 8.52783203 -0.05688477 C10.46312878 -0.06823126 12.39839882 -0.08839513 14.33349609 -0.1184082 C39.08970602 -0.50220879 61.6708603 2.757195 80.6796875 19.6796875 C92.15822261 31.17577388 96.51997582 45.39469992 96.55126953 61.35449219 C96.31485111 75.09011036 91.85691015 88.80447853 84.234375 100.23828125 C85.554375 99.90828125 86.874375 99.57828125 88.234375 99.23828125 C83.654499 104.79955926 77.6866029 107.2784 71.234375 110.23828125 C70.3165625 110.68429688 69.39875 111.1303125 68.453125 111.58984375 C59.39935377 115.73525024 50.0415368 117.8170599 40.234375 119.23828125 C39.36989746 119.37331055 38.50541992 119.50833984 37.61474609 119.64746094 C20.66515091 121.9773666 10.37939683 115.74487522 -3.16845703 106.08398438 C-22.30608237 92.4836415 -44.43703062 83.75036971 -66.47021484 76.05810547 C-72.44092387 73.92561867 -78.47633382 71.76447537 -83.765625 68.23828125 C-86.15239576 67.94375541 -88.55188594 67.74545955 -90.953125 67.61328125 C-92.22542969 67.53851563 -93.49773437 67.46375 -94.80859375 67.38671875 C-96.27232422 67.31324219 -96.27232422 67.31324219 -97.765625 67.23828125 C-97.765625 66.90828125 -97.765625 66.57828125 -97.765625 66.23828125 C-97.1840073 66.2358929 -96.6023896 66.23350454 -96.00314713 66.23104382 C-81.80363481 66.17172073 -67.60428648 66.09606128 -53.40495682 66.00256634 C-46.53805331 65.95773904 -39.67120015 65.91829491 -32.80419922 65.8918457 C-26.1710466 65.86628168 -19.53810217 65.82528989 -12.9050827 65.77509499 C-10.38072271 65.75847382 -7.85632376 65.74693009 -5.33191681 65.74066734 C-1.78256368 65.7309747 1.76621878 65.70285289 5.31542969 65.6706543 C6.34762131 65.67208939 7.37981293 65.67352448 8.44328308 65.67500305 C19.47388595 65.53446856 32.31919554 63.38880145 40.859375 55.79296875 C45.79634338 50.18010589 47.77416392 45.07249524 47.51953125 37.69921875 C46.79413593 31.43895778 44.07490427 27.13175044 39.234375 23.23828125 C30.18592899 18.18679917 21.47135131 18.08570826 11.33227539 18.03295898 C10.15107117 18.02305939 8.96986694 18.01315979 7.75286865 18.00296021 C4.53232404 17.97688594 1.31178415 17.95497756 -1.90880275 17.93495822 C-5.28139628 17.91299668 -8.65394623 17.88565804 -12.02650452 17.85890198 C-18.40466319 17.80911189 -24.78284623 17.76412267 -31.16105229 17.72087961 C-38.42591773 17.67138981 -45.69073942 17.61651547 -52.95556247 17.56120002 C-67.89220915 17.44759023 -82.82889711 17.34070598 -97.765625 17.23828125 C-97.765625 16.90828125 -97.765625 16.57828125 -97.765625 16.23828125 C-97.1886084 16.16424072 -96.6115918 16.0902002 -96.01708984 16.01391602 C-77.54251741 13.58342499 -59.33295329 10.10705642 -41.07568359 6.41235352 C-31.52493075 4.49039549 -22.04518399 2.7238633 -12.36230469 1.61962891 C-1.41579532 0.01202759 -1.41579532 0.01202759 0 0 Z " fill="#0E2CA5" transform="translate(261.765625,140.76171875)"/>
<path d="M0 0 C1.55321168 0.05525195 3.10661264 0.10542909 4.66015625 0.15039062 C8.44862179 0.26157825 12.21059498 0.47626627 16 0.6875 C14.68 7.9475 13.36 15.2075 12 22.6875 C18.6 23.0175 25.2 23.3475 32 23.6875 C31.44912716 30.20616188 30.53808217 36.33009371 29 42.6875 C32.96 42.6875 36.92 42.6875 41 42.6875 C38.61290323 48.65524194 38.61290323 48.65524194 36 50.6875 C34.87078125 51.12449219 34.87078125 51.12449219 33.71875 51.5703125 C26.15233544 54.67950009 19.42187667 60.04546905 12.7734375 64.75390625 C9.50613306 67.03181568 6.19473708 69.23703992 2.875 71.4375 C-2.45215925 74.9706958 -7.74024394 78.55474305 -13 82.1875 C-18.07480599 85.69145985 -23.17324022 89.15378619 -28.3125 92.5625 C-42.8408278 102.21969008 -57.1654801 112.05413975 -71 122.6875 C-72.10456543 123.53296387 -72.10456543 123.53296387 -73.23144531 124.39550781 C-82.4773197 131.48153342 -91.57723831 138.69173407 -100.39501953 146.3046875 C-102.11056418 147.78275944 -103.83384393 149.25143247 -105.55859375 150.71875 C-111.69713854 155.9474836 -117.77010429 161.23362003 -123.74609375 166.6484375 C-125.96418925 168.65510275 -128.19431172 170.64643466 -130.4375 172.625 C-131.05496094 173.17027344 -131.67242187 173.71554687 -132.30859375 174.27734375 C-134 175.6875 -134 175.6875 -137 177.6875 C-135.51682831 173.53152932 -133.41386316 169.97822678 -131 166.3125 C-130.60047119 165.69947021 -130.20094238 165.08644043 -129.78930664 164.45483398 C-128.53118232 162.52907351 -127.26607028 160.60804336 -126 158.6875 C-125.62343262 158.11241699 -125.24686523 157.53733398 -124.85888672 156.94482422 C-118.82483478 147.73356195 -112.5495246 138.69506361 -106.24707031 129.66601562 C-99.65437182 120.21431755 -93.16804796 110.6919969 -86.68701172 101.16357422 C-82.91119883 95.62170818 -79.10550043 90.10035092 -75.30175781 84.57763672 C-73.07491554 81.34428846 -70.84979438 78.10975758 -68.625 74.875 C-68.17680908 74.22370117 -67.72861816 73.57240234 -67.2668457 72.90136719 C-64.75986566 69.25597961 -62.26059988 65.60550046 -59.76953125 61.94921875 C-54.57349496 54.32632786 -49.3536167 46.73197337 -43.95336914 39.25219727 C-39.35142805 32.84376618 -34.94263101 26.30257805 -30.52783203 19.7644043 C-29.31533852 17.97433896 -28.08553379 16.19587955 -26.83886719 14.42944336 C-24.93211782 11.68801929 -24.93211782 11.68801929 -23.35644531 8.58813477 C-17.58090997 -1.39531357 -10.35314184 -0.6414327 0 0 Z " fill="#5D27DE" transform="translate(504,116.3125)"/>
<path d="M0 0 C-0.29280305 3.09011793 -0.47857716 4.56298783 -2.90625 6.59765625 C-3.7621875 7.08105469 -4.618125 7.56445312 -5.5 8.0625 C-10.68580038 11.14832132 -15.5957685 14.48403492 -20.5 18 C-25.10184227 21.28122196 -29.69863547 24.51378547 -34.5 27.5 C-46.4500091 34.95738772 -57.83430645 43.42680082 -69 52 C-70.01513672 52.77730469 -70.01513672 52.77730469 -71.05078125 53.5703125 C-80.35364806 60.70631191 -89.51993332 67.95475901 -98.39501953 75.6171875 C-100.11056418 77.09525944 -101.83384393 78.56393247 -103.55859375 80.03125 C-109.69713854 85.2599836 -115.77010429 90.54612003 -121.74609375 95.9609375 C-123.96418925 97.96760275 -126.19431172 99.95893466 -128.4375 101.9375 C-129.05496094 102.48277344 -129.67242187 103.02804687 -130.30859375 103.58984375 C-132 105 -132 105 -135 107 C-133.42185692 102.54556388 -131.15572042 98.76985202 -128.625 94.8125 C-128.23828125 94.18408203 -127.8515625 93.55566406 -127.453125 92.90820312 C-125.30392508 89.5365556 -123.72328782 87.49245714 -120 86 C-118.80573164 84.5735128 -117.61537805 83.14330745 -116.45703125 81.6875 C-114.31688222 79.20882874 -111.86111487 77.1743377 -109.375 75.05078125 C-101.97902188 68.66445146 -94.83100908 61.98625929 -88 55 C-87.01 55.33 -86.02 55.66 -85 56 C-83.01317219 54.80348078 -83.01317219 54.80348078 -81 53 C-67.52112676 42 -67.52112676 42 -63 42 C-63 41.34 -63 40.68 -63 40 C-62.05125 39.566875 -61.1025 39.13375 -60.125 38.6875 C-56.79958063 37.20697799 -56.79958063 37.20697799 -55 34 C-54.01 33.67 -53.02 33.34 -52 33 C-50.65255851 31.6809257 -49.32124583 30.34531224 -48 29 C-46.25379161 27.65491145 -44.48113303 26.34366645 -42.6875 25.0625 C-41.71554687 24.36769531 -40.74359375 23.67289063 -39.7421875 22.95703125 C-38.83726562 22.31121094 -37.93234375 21.66539062 -37 21 C-36.01386719 20.26330078 -36.01386719 20.26330078 -35.0078125 19.51171875 C-31.44866513 16.86286022 -27.84575643 14.87739922 -23.84375 12.96875 C-21.29825605 11.63128707 -19.22283004 9.81336135 -17 8 C-15.01833966 6.9641321 -13.01526169 5.96887581 -11 5 C-8.64217223 3.6777047 -6.2950746 2.33848689 -3.953125 0.98828125 C-2 0 -2 0 0 0 Z " fill="#8C65EF" transform="translate(502,187)"/>
<path d="M0 0 C9.57 0 19.14 0 29 0 C29 9.9 29 19.8 29 30 C19.1 30 9.2 30 -1 30 C-1.020625 27.64875 -1.04125 25.2975 -1.0625 22.875 C-1.071604 22.16714355 -1.08070801 21.45928711 -1.09008789 20.72998047 C-1.11849044 13.73928871 -0.50379706 7.05315889 0 0 Z " fill="#4B39DC" transform="translate(547,96)"/>
<path d="M0 0 C7.26 0 14.52 0 22 0 C22 7.26 22 14.52 22 22 C14.74 22 7.48 22 0 22 C0 14.74 0 7.48 0 0 Z " fill="#2E75F1" transform="translate(557,58)"/>
<path d="M0 0 C6.6 0 13.2 0 20 0 C20 6.6 20 13.2 20 20 C13.07 20 6.14 20 -1 20 C-0.67 13.4 -0.34 6.8 0 0 Z " fill="#4449E7" transform="translate(515,76)"/>
<path d="M0 0 C-0.29280305 3.09011793 -0.47857716 4.56298783 -2.90625 6.59765625 C-3.7621875 7.08105469 -4.618125 7.56445312 -5.5 8.0625 C-10.68580038 11.14832132 -15.5957685 14.48403492 -20.5 18 C-25.91979598 21.86444222 -31.38424722 25.56343981 -37.0390625 29.078125 C-41.81988553 32.18124496 -46.44266925 35.50830442 -51.07617188 38.82617188 C-54.64149046 41.37188217 -58.19310977 43.82036873 -62 46 C-61.875 44.3125 -61.875 44.3125 -61 42 C-59.00334402 40.32932867 -57.00348966 38.66247014 -55 37 C-55 36.01 -55 35.02 -55 34 C-53.515 33.505 -53.515 33.505 -52 33 C-50.65255851 31.6809257 -49.32124583 30.34531224 -48 29 C-46.25379161 27.65491145 -44.48113303 26.34366645 -42.6875 25.0625 C-41.71554687 24.36769531 -40.74359375 23.67289063 -39.7421875 22.95703125 C-38.83726562 22.31121094 -37.93234375 21.66539062 -37 21 C-36.34257812 20.50886719 -35.68515625 20.01773438 -35.0078125 19.51171875 C-31.44866513 16.86286022 -27.84575643 14.87739922 -23.84375 12.96875 C-21.29825605 11.63128707 -19.22283004 9.81336135 -17 8 C-15.01833966 6.9641321 -13.01526169 5.96887581 -11 5 C-8.64217223 3.6777047 -6.2950746 2.33848689 -3.953125 0.98828125 C-2 0 -2 0 0 0 Z " fill="#855BE8" transform="translate(502,187)"/>
<path d="M0 0 C45.21 0 90.42 0 137 0 C137 0.33 137 0.66 137 1 C87.5 1.495 87.5 1.495 37 2 C39.99470492 4.24602869 41.50235181 5.37402626 44.78515625 6.53515625 C45.48060547 6.78716797 46.17605469 7.03917969 46.89257812 7.29882812 C47.60865234 7.55083984 48.32472656 7.80285156 49.0625 8.0625 C56.62607862 10.75071908 56.62607862 10.75071908 60 13 C60 13.99 60 14.98 60 16 C55.27934033 14.45730076 50.58335908 12.92205381 46 11 C46 10.34 46 9.68 46 9 C43.73139163 8.4695592 41.46001511 7.95094566 39.1875 7.4375 C37.92292969 7.14746094 36.65835938 6.85742188 35.35546875 6.55859375 C32.01795591 5.73416977 32.01795591 5.73416977 29 7 C26.8125 6.5625 26.8125 6.5625 25 6 C25 5.01 25 4.02 25 3 C18.4 3 11.8 3 5 3 C7.475 4.423125 7.475 4.423125 10 5.875 C12.8125 7.4921875 12.8125 7.4921875 15 9 C15 9.66 15 10.32 15 11 C16.32 11.66 17.64 12.32 19 13 C18.67 13.66 18.34 14.32 18 15 C15.03 13.02 12.06 11.04 9 9 C8.67 9.99 8.34 10.98 8 12 C6.66382103 10.18959679 5.33112616 8.3766216 4 6.5625 C3.2575 5.55316406 2.515 4.54382813 1.75 3.50390625 C0 1 0 1 0 0 Z " fill="#4387DE" transform="translate(142,206)"/>
<path d="M0 0 C5.61 0 11.22 0 17 0 C17 5.61 17 11.22 17 17 C11.39 17 5.78 17 0 17 C0 11.39 0 5.78 0 0 Z " fill="#3B77F1" transform="translate(597,75)"/>
<path d="M0 0 C6.78000306 1.2810458 12.57547745 3.33176564 18.8125 6.25 C19.68036133 6.64823975 20.54822266 7.04647949 21.44238281 7.45678711 C28.03198426 10.49837743 34.55591513 13.66007797 41 17 C40.34 17.99 39.68 18.98 39 20 C39 21.32 39 22.64 39 24 C35.66666667 22.33333333 32.33333333 20.66666667 29 19 C29 18.34 29 17.68 29 17 C28.39671875 16.80664062 27.7934375 16.61328125 27.171875 16.4140625 C26.37265625 16.15367187 25.5734375 15.89328125 24.75 15.625 C23.96109375 15.36976563 23.1721875 15.11453125 22.359375 14.8515625 C20.13372042 14.04826333 18.09068328 13.10288338 16 12 C16 11.34 16 10.68 16 10 C15.195625 9.773125 14.39125 9.54625 13.5625 9.3125 C9.13733394 7.68217566 4.85874356 5.73767701 1 3 C0.67 2.01 0.34 1.02 0 0 Z " fill="#C9E8FC" transform="translate(201,219)"/>
<path d="M0 0 C0 4.29 0 8.58 0 13 C-6.93 13 -13.86 13 -21 13 C-20.67 11.68 -20.34 10.36 -20 9 C-18.700625 8.87625 -18.700625 8.87625 -17.375 8.75 C-13.44892092 7.87753798 -11.23667889 6.36007835 -8 4 C-2.22222222 0 -2.22222222 0 0 0 Z " fill="#2B55E2" transform="translate(578,66)"/>
<path d="M0 0 C0.33 0 0.66 0 1 0 C1 6.6 1 13.2 1 20 C-5.93 20 -12.86 20 -20 20 C-20 19.67 -20 19.34 -20 19 C-18.88625 19.020625 -17.7725 19.04125 -16.625 19.0625 C-11.04406464 18.44461073 -7.93622154 14.73857277 -4.1015625 10.93359375 C-2 9 -2 9 0 9 C0 6.03 0 3.06 0 0 Z " fill="#3B29D3" transform="translate(534,76)"/>
<path d="M0 0 C2.50843647 0.1194724 4.99128058 0.18522259 7.50073242 0.20532227 C8.26194901 0.21522186 9.02316559 0.22512146 9.80744934 0.23532104 C12.32342418 0.26690729 14.83941789 0.29168209 17.35546875 0.31640625 C19.09996532 0.33697826 20.84445693 0.3579748 22.58894348 0.37937927 C27.18053167 0.43457442 31.77216465 0.48399499 36.36383057 0.53222656 C41.04923489 0.58246024 45.73457417 0.63813657 50.41992188 0.69335938 C59.61322568 0.80090968 68.80658596 0.90236162 78 1 C78 1.33 78 1.66 78 2 C46.98 2 15.96 2 -16 2 C-16 1.67 -16 1.34 -16 1 C-13.8973294 0.63705686 -11.79278943 0.28493028 -9.6875 -0.0625 C-8.51574219 -0.25972656 -7.34398437 -0.45695313 -6.13671875 -0.66015625 C-3 -1 -3 -1 0 0 Z " fill="#0641C0" transform="translate(180,156)"/>
<path d="M0 0 C7.26 0 14.52 0 22 0 C22 0.66 22 1.32 22 2 C22.99 2.33 23.98 2.66 25 3 C18.4 3 11.8 3 5 3 C7.475 4.423125 7.475 4.423125 10 5.875 C12.8125 7.4921875 12.8125 7.4921875 15 9 C15 9.66 15 10.32 15 11 C16.32 11.66 17.64 12.32 19 13 C18.67 13.66 18.34 14.32 18 15 C15.03 13.02 12.06 11.04 9 9 C8.67 9.99 8.34 10.98 8 12 C6.66382103 10.18959679 5.33112616 8.3766216 4 6.5625 C3.2575 5.55316406 2.515 4.54382813 1.75 3.50390625 C0 1 0 1 0 0 Z " fill="#38C8F8" transform="translate(142,206)"/>
<path d="M0 0 C2.97 0 5.94 0 9 0 C9 3.3 9 6.6 9 10 C6.03 10 3.06 10 0 10 C0 6.7 0 3.4 0 0 Z " fill="#512EDF" transform="translate(555,141)"/>
<path d="M0 0 C13.8330065 2.83290329 13.8330065 2.83290329 17 7 C17 7.99 17 8.98 17 10 C18.32 9.67 19.64 9.34 21 9 C21.33 10.65 21.66 12.3 22 14 C20.02 13.34 18.04 12.68 16 12 C16 11.34 16 10.68 16 10 C15.195625 9.773125 14.39125 9.54625 13.5625 9.3125 C9.13733394 7.68217566 4.85874356 5.73767701 1 3 C0.67 2.01 0.34 1.02 0 0 Z " fill="#7BC7FA" transform="translate(201,219)"/>
<path d="M0 0 C0.33 0.99 0.66 1.98 1 3 C-0.04467773 4.81835938 -0.04467773 4.81835938 -1.68359375 6.84375 C-2.27833496 7.59092285 -2.87307617 8.3380957 -3.48583984 9.10791016 C-4.1298877 9.8972998 -4.77393555 10.68668945 -5.4375 11.5 C-6.73178243 13.12134802 -8.02475532 14.74374231 -9.31640625 16.3671875 C-9.94820801 17.15706055 -10.58000977 17.94693359 -11.23095703 18.76074219 C-14.63334503 23.06749112 -17.82512554 27.52362421 -21 32 C-21.33 31.01 -21.66 30.02 -22 29 C-21.34 29 -20.68 29 -20 29 C-20 28.01 -20 27.02 -20 26 C-19.34 26 -18.68 26 -18 26 C-18 24.35 -18 22.7 -18 21 C-16.68 20.67 -15.36 20.34 -14 20 C-13.67 18.68 -13.34 17.36 -13 16 C-12.34 16 -11.68 16 -11 16 C-10.34 14.35 -9.68 12.7 -9 11 C-8.34 11 -7.68 11 -7 11 C-6.71125 10.4225 -6.4225 9.845 -6.125 9.25 C-5.08333333 7.16666667 -4.04166667 5.08333333 -3 3 C-2.34 3 -1.68 3 -1 3 C-0.67 2.01 -0.34 1.02 0 0 Z " fill="#4E16BC" transform="translate(420,329)"/>
<path d="M0 0 C0.66 0.33 1.32 0.66 2 1 C-5.59 8.59 -13.18 16.18 -21 24 C-21 19.82157922 -18.71491649 17.841204 -16.125 14.8125 C-15.66480469 14.25369141 -15.20460938 13.69488281 -14.73046875 13.11914062 C-13.53692808 11.70245974 -12.27284584 10.34587798 -11 9 C-10.34 9 -9.68 9 -9 9 C-8.7525 8.401875 -8.505 7.80375 -8.25 7.1875 C-6.2738354 3.72921196 -3.26831639 2.1788776 0 0 Z " fill="#3A09A0" transform="translate(471,231)"/>
<path d="M0 0 C1.65 0 3.3 0 5 0 C5 2.31 5 4.62 5 7 C0.34022827 7.94146409 -4.07751261 8.06389045 -8.8046875 7.87890625 C-9.8906572 7.84348976 -9.8906572 7.84348976 -10.99856567 7.80735779 C-13.29094051 7.73132307 -15.58292481 7.64704376 -17.875 7.5625 C-19.43748145 7.50921886 -20.99998146 7.45647897 -22.5625 7.40429688 C-26.37524316 7.2757905 -30.18765836 7.13989371 -34 7 C-34 6.67 -34 6.34 -34 6 C-22.78 6 -11.56 6 0 6 C0 4.02 0 2.04 0 0 Z " fill="#E2E1FA" transform="translate(521,110)"/>
<path d="M0 0 C0.66 0.33 1.32 0.66 2 1 C1.01 2.485 1.01 2.485 0 4 C5.72838126 6.01454482 10.42146856 6.10977288 16.4375 5.625 C17.26443359 5.56828125 18.09136719 5.5115625 18.94335938 5.453125 C20.96302888 5.31303232 22.98165637 5.15805019 25 5 C21.96358445 8.03641555 18.97746166 8.12617436 14.8125 8.1328125 C14.03132813 8.13410156 13.25015625 8.13539063 12.4453125 8.13671875 C11.63835937 8.13285156 10.83140625 8.12898438 10 8.125 C9.19304687 8.12886719 8.38609375 8.13273437 7.5546875 8.13671875 C6.77351563 8.13542969 5.99234375 8.13414062 5.1875 8.1328125 C4.47980469 8.13168457 3.77210938 8.13055664 3.04296875 8.12939453 C0.92287267 7.99511502 -0.95957563 7.57716498 -3 7 C-2.25 2.25 -2.25 2.25 0 0 Z " fill="#3B11A4" transform="translate(344,325)"/>
<path d="M0 0 C0.33 0 0.66 0 1 0 C0.85616078 1.52102323 0.70980986 3.04180897 0.5625 4.5625 C0.48128906 5.40941406 0.40007813 6.25632813 0.31640625 7.12890625 C-0.04721423 10.42842538 -0.53055253 13.71386771 -1 17 C5.6 17.33 12.2 17.66 19 18 C18.67 19.32 18.34 20.64 18 22 C18 21.01 18 20.02 18 19 C7.605 19.495 7.605 19.495 -3 20 C-4.04940487 16.85178538 -3.98606526 16.0650509 -3.22265625 12.98828125 C-3.03896484 12.23095703 -2.85527344 11.47363281 -2.66601562 10.69335938 C-2.46685547 9.90767578 -2.26769531 9.12199219 -2.0625 8.3125 C-1.86720703 7.51521484 -1.67191406 6.71792969 -1.47070312 5.89648438 C-0.98771618 3.92919611 -0.4948037 1.96434946 0 0 Z " fill="#4125C6" transform="translate(517,122)"/>
<path d="M0 0 C1.91541138 -0.10841951 3.83259773 -0.18578079 5.75 -0.25 C6.81734375 -0.29640625 7.8846875 -0.3428125 8.984375 -0.390625 C12.63802112 0.08264522 13.72228105 1.19155042 16 4 C15.07767578 3.98259766 15.07767578 3.98259766 14.13671875 3.96484375 C12.92435547 3.95130859 12.92435547 3.95130859 11.6875 3.9375 C10.88699219 3.92589844 10.08648437 3.91429687 9.26171875 3.90234375 C6.83138666 3.90342145 6.83138666 3.90342145 4 5 C1.8125 4.5625 1.8125 4.5625 0 4 C0 2.68 0 1.36 0 0 Z " fill="#1852D5" transform="translate(167,208)"/>
<path d="M0 0 C-3.70060202 3.92488093 -7.4906925 7.02215543 -12 10 C-12.66 10 -13.32 10 -14 10 C-13.22050042 5.47890241 -11.27594056 3.90658934 -7.625 1.3125 C-4.80042961 -0.09978519 -3.10962377 -0.26653918 0 0 Z " fill="#6636DE" transform="translate(516,180)"/>
<path d="M0 0 C1.62567079 0.14715199 3.25586857 0.24721867 4.88671875 0.31640625 C5.82451172 0.35830078 6.76230469 0.40019531 7.72851562 0.44335938 C8.70498047 0.48267578 9.68144531 0.52199219 10.6875 0.5625 C12.16959961 0.62727539 12.16959961 0.62727539 13.68164062 0.69335938 C16.12095546 0.79941654 18.56037113 0.90147714 21 1 C21 1.33 21 1.66 21 2 C8.79 2 -3.42 2 -16 2 C-16 1.67 -16 1.34 -16 1 C-13.8973294 0.63705686 -11.79278943 0.28493028 -9.6875 -0.0625 C-8.51574219 -0.25972656 -7.34398437 -0.45695313 -6.13671875 -0.66015625 C-3 -1 -3 -1 0 0 Z " fill="#0A5BD0" transform="translate(180,156)"/>
<path d="M0 0 C2.31 0 4.62 0 7 0 C7 2.31 7 4.62 7 7 C4.69 7 2.38 7 0 7 C0 4.69 0 2.38 0 0 Z " fill="#534BEE" transform="translate(586,108)"/>
<path d="M0 0 C0.99 0 1.98 0 3 0 C3 4.95 3 9.9 3 15 C-1.95 15 -6.9 15 -12 15 C-12 14.67 -12 14.34 -12 14 C-6.06 13.505 -6.06 13.505 0 13 C0.62457273 9.56484998 1 6.50935186 1 3 C1.33 2.34 1.66 1.68 2 1 C1.34 0.67 0.68 0.34 0 0 Z " fill="#2558E6" transform="translate(611,76)"/>
<path d="M0 0 C1.65 0.33 3.3 0.66 5 1 C4.29875 1.680625 3.5975 2.36125 2.875 3.0625 C-0.27934337 6.20780513 -3.13934304 9.5888386 -6 13 C-6.66 12.67 -7.32 12.34 -8 12 C-5.36 8.04 -2.72 4.08 0 0 Z " fill="#773BE6" transform="translate(387,262)"/>
<path d="M0 0 C1.98 0 3.96 0 6 0 C6 2.31 6 4.62 6 7 C4.02 7 2.04 7 0 7 C0 4.69 0 2.38 0 0 Z " fill="#4F3BE8" transform="translate(499,100)"/>
<path d="M0 0 C3.55780196 0.60990891 6.6828589 1.5783681 10 3 C10 3.66 10 4.32 10 5 C10.99 5.66 11.98 6.32 13 7 C12.67 7.99 12.34 8.98 12 10 C10.0625 9.1875 10.0625 9.1875 8 8 C7.67 7.01 7.34 6.02 7 5 C6.01 5 5.02 5 4 5 C4 4.01 4 3.02 4 2 C2.68 1.34 1.36 0.68 0 0 Z " fill="#9FD7FB" transform="translate(214,224)"/>
<path d="M0 0 C0.66 0.33 1.32 0.66 2 1 C-2.62 5.62 -7.24 10.24 -12 15 C-12 12 -12 12 -9.9375 9.75 C-8.96003453 8.83151952 -7.98063409 7.91509667 -7 7 C-5.72522205 5.73312357 -4.45446477 4.46219016 -3.1875 3.1875 C-2.125 2.125 -1.0625 1.0625 0 0 Z " fill="#301291" transform="translate(376,285)"/>
<path d="M0 0 C0.99 1.32 1.98 2.64 3 4 C0.36 6.64 -2.28 9.28 -5 12 C-5.33 11.34 -5.66 10.68 -6 10 C-4.78515625 7.6171875 -4.78515625 7.6171875 -3.0625 4.875 C-2.21365234 3.50988281 -2.21365234 3.50988281 -1.34765625 2.1171875 C-0.90292969 1.41851562 -0.45820313 0.71984375 0 0 Z " fill="#9E74EF" transform="translate(373,282)"/>
<path d="M0 0 C6.75 0.875 6.75 0.875 9 2 C9 2.66 9 3.32 9 4 C10.32 4.66 11.64 5.32 13 6 C12.67 6.66 12.34 7.32 12 8 C9.03 6.02 6.06 4.04 3 2 C2.67 2.99 2.34 3.98 2 5 C1.34 3.35 0.68 1.7 0 0 Z " fill="#35B2F6" transform="translate(148,213)"/>
<path d="M0 0 C2.49693312 0.83231104 4.75552767 1.7470962 7.125 2.875 C7.82882813 3.20242187 8.53265625 3.52984375 9.2578125 3.8671875 C11 5 11 5 12 8 C7.9642154 6.77987907 4.44593665 5.46138332 1 3 C0.67 2.01 0.34 1.02 0 0 Z " fill="#5CC7FB" transform="translate(201,219)"/>
<path d="M0 0 C1.62580966 0.11398665 3.25067157 0.24155659 4.875 0.375 C5.77992188 0.44460937 6.68484375 0.51421875 7.6171875 0.5859375 C10 1 10 1 12 3 C10.8553125 2.9690625 10.8553125 2.9690625 9.6875 2.9375 C6.89814214 2.87057159 6.89814214 2.87057159 4 4 C1.8125 3.5625 1.8125 3.5625 0 3 C0 2.01 0 1.02 0 0 Z " fill="#1DC1F9" transform="translate(167,209)"/>
<path d="M0 0 C0.33 0.99 0.66 1.98 1 3 C-0.43359375 5.26171875 -0.43359375 5.26171875 -2.4375 7.6875 C-3.09621094 8.49574219 -3.75492187 9.30398438 -4.43359375 10.13671875 C-4.95050781 10.75160156 -5.46742188 11.36648438 -6 12 C-6.33 11.01 -6.66 10.02 -7 9 C-5.1875 5.8125 -5.1875 5.8125 -3 3 C-2.34 3 -1.68 3 -1 3 C-0.67 2.01 -0.34 1.02 0 0 Z " fill="#571EC8" transform="translate(420,329)"/>
<path d="M0 0 C0.66 0.33 1.32 0.66 2 1 C1.04663979 2.31611677 0.08714226 3.62778961 -0.875 4.9375 C-1.40867187 5.66839844 -1.94234375 6.39929688 -2.4921875 7.15234375 C-4 9 -4 9 -6 10 C-4.6302836 6.00499382 -2.74277578 3.19990508 0 0 Z " fill="#321393" transform="translate(357,307)"/>
<path d="M0 0 C-1.0975223 2.99324263 -1.67682892 3.84610901 -4.625 5.25 C-5.40875 5.4975 -6.1925 5.745 -7 6 C-6.75 4.125 -6.75 4.125 -6 2 C-3.85331506 0.61504198 -2.56128588 0 0 0 Z " fill="#6E40D9" transform="translate(509,184)"/>
<path d="M0 0 C0 1.98 0 3.96 0 6 C-1.32 6 -2.64 6 -4 6 C-4 4.35 -4 2.7 -4 1 C-2 0 -2 0 0 0 Z " fill="#647BF5" transform="translate(526,110)"/>
<path d="M0 0 C4.92127034 -0.16682272 8.50343896 -0.24828052 13 2 C13 2.33 13 2.66 13 3 C11.39504433 2.88557539 9.79101881 2.75805306 8.1875 2.625 C7.29417969 2.55539063 6.40085938 2.48578125 5.48046875 2.4140625 C3 2 3 2 0 0 Z " fill="#2A9AED" transform="translate(179,212)"/>
<path d="M0 0 C3.76488042 1.72154788 6.15063897 3.99234114 9 7 C6 7 6 7 4.39453125 5.46875 C3.87246094 4.8190625 3.35039062 4.169375 2.8125 3.5 C2.28269531 2.8503125 1.75289062 2.200625 1.20703125 1.53125 C0.80871094 1.0259375 0.41039062 0.520625 0 0 Z " fill="#2EB0F7" transform="translate(161,221)"/>
<path d="M0 0 C0.66 0.33 1.32 0.66 2 1 C-1.465 3.97 -1.465 3.97 -5 7 C-3.92643531 2.70574125 -3.4915227 2.25259529 0 0 Z " fill="#6629E3" transform="translate(463,189)"/>
</svg>
